<svg xmlns="http://www.w3.org/2000/svg" width="900" height="900" viewBox="0 0 900 900">
  <defs>
    <style>
      .line { fill: none; stroke: #c0ad96; stroke-width: 1.6; stroke-linecap: round; stroke-linejoin: round; opacity: 0.4; }
    </style>
  </defs>

  <!-- DUMPLING: half-moon with pleated top edge and steam -->
  <!-- Dumpling 1 -->
  <g transform="translate(60, 40) scale(1.1) rotate(-8)">
    <path class="line" d="M0,25 C0,0 60,0 60,25" />
    <path class="line" d="M0,25 C0,42 60,42 60,25" />
    <path class="line" d="M8,22 C12,16 16,16 20,22" />
    <path class="line" d="M20,20 C24,14 28,14 32,20" />
    <path class="line" d="M32,22 C36,16 40,16 44,22" />
    <path class="line" d="M44,20 C48,14 52,14 56,20" />
    <path class="line" d="M24,-4 Q22,-12 26,-18" />
    <path class="line" d="M36,-4 Q34,-12 38,-18" />
  </g>

  <!-- Wok/pan: rounded bottom with two short handles -->
  <g transform="translate(290, 55) scale(0.9) rotate(12)">
    <path class="line" d="M0,15 C0,50 70,50 70,15" />
    <path class="line" d="M-8,15 L0,15" />
    <path class="line" d="M70,15 L78,15" />
    <path class="line" d="M70,15 L95,8" />
  </g>

  <!-- Dumpling 2 -->
  <g transform="translate(520, 30) scale(1.0) rotate(5)">
    <path class="line" d="M0,25 C0,0 60,0 60,25" />
    <path class="line" d="M0,25 C0,42 60,42 60,25" />
    <path class="line" d="M10,22 C14,16 18,16 22,22" />
    <path class="line" d="M22,20 C26,14 30,14 34,20" />
    <path class="line" d="M34,22 C38,16 42,16 46,22" />
  </g>

  <!-- Chopsticks: angled with slight taper -->
  <g transform="translate(750, 50) scale(1.0) rotate(25)">
    <line class="line" x1="0" y1="0" x2="65" y2="50" />
    <line class="line" x1="8" y1="0" x2="60" y2="55" />
  </g>

  <!-- Row 2 -->
  <!-- Bamboo steamer: circle with slat lines -->
  <g transform="translate(120, 200) scale(1.0) rotate(-5)">
    <ellipse class="line" cx="30" cy="20" rx="30" ry="18" />
    <path class="line" d="M5,20 L55,20" />
    <path class="line" d="M10,12 L50,12" />
    <path class="line" d="M10,28 L50,28" />
    <path class="line" d="M22,2 Q20,-5 24,-10" />
    <path class="line" d="M34,2 Q32,-5 36,-10" />
  </g>

  <g transform="translate(380, 180) scale(1.2) rotate(-15)">
    <path class="line" d="M0,25 C0,0 60,0 60,25" />
    <path class="line" d="M0,25 C0,42 60,42 60,25" />
    <path class="line" d="M8,22 C12,16 16,16 20,22" />
    <path class="line" d="M20,20 C24,14 28,14 32,20" />
    <path class="line" d="M32,22 C36,16 40,16 44,22" />
    <path class="line" d="M44,20 C48,14 52,14 56,20" />
    <path class="line" d="M30,-4 Q28,-12 32,-18" />
  </g>

  <!-- Wok 2 -->
  <g transform="translate(640, 210) scale(1.0) rotate(-20)">
    <path class="line" d="M0,15 C0,50 70,50 70,15" />
    <path class="line" d="M70,15 L95,8" />
    <line class="line" x1="20" y1="32" x2="50" y2="32" />
  </g>

  <!-- Chopsticks 2 -->
  <g transform="translate(830, 200) scale(0.85) rotate(-30)">
    <line class="line" x1="0" y1="0" x2="65" y2="50" />
    <line class="line" x1="8" y1="0" x2="60" y2="55" />
  </g>

  <!-- Row 3 -->
  <g transform="translate(50, 370) scale(1.0) rotate(20)">
    <line class="line" x1="0" y1="0" x2="65" y2="50" />
    <line class="line" x1="8" y1="0" x2="60" y2="55" />
  </g>

  <g transform="translate(250, 360) scale(1.1) rotate(10)">
    <path class="line" d="M0,25 C0,0 60,0 60,25" />
    <path class="line" d="M0,25 C0,42 60,42 60,25" />
    <path class="line" d="M10,22 C14,16 18,16 22,22" />
    <path class="line" d="M22,20 C26,14 30,14 34,20" />
    <path class="line" d="M34,22 C38,16 42,16 46,22" />
    <path class="line" d="M24,-4 Q22,-12 26,-18" />
    <path class="line" d="M36,-4 Q34,-12 38,-18" />
  </g>

  <!-- Steamer 2 -->
  <g transform="translate(490, 350) scale(0.9) rotate(8)">
    <ellipse class="line" cx="30" cy="20" rx="30" ry="18" />
    <path class="line" d="M5,20 L55,20" />
    <path class="line" d="M10,12 L50,12" />
    <path class="line" d="M10,28 L50,28" />
  </g>

  <g transform="translate(700, 380) scale(1.0) rotate(-12)">
    <path class="line" d="M0,25 C0,0 60,0 60,25" />
    <path class="line" d="M0,25 C0,42 60,42 60,25" />
    <path class="line" d="M8,22 C12,16 16,16 20,22" />
    <path class="line" d="M20,20 C24,14 28,14 32,20" />
    <path class="line" d="M32,22 C36,16 40,16 44,22" />
  </g>

  <!-- Row 4 -->
  <g transform="translate(100, 530) scale(1.0) rotate(-18)">
    <path class="line" d="M0,15 C0,50 70,50 70,15" />
    <path class="line" d="M70,15 L95,8" />
    <line class="line" x1="20" y1="32" x2="50" y2="32" />
  </g>

  <g transform="translate(350, 520) scale(1.15) rotate(3)">
    <path class="line" d="M0,25 C0,0 60,0 60,25" />
    <path class="line" d="M0,25 C0,42 60,42 60,25" />
    <path class="line" d="M8,22 C12,16 16,16 20,22" />
    <path class="line" d="M20,20 C24,14 28,14 32,20" />
    <path class="line" d="M32,22 C36,16 40,16 44,22" />
    <path class="line" d="M44,20 C48,14 52,14 56,20" />
  </g>

  <g transform="translate(600, 540) scale(0.95) rotate(35)">
    <line class="line" x1="0" y1="0" x2="65" y2="50" />
    <line class="line" x1="8" y1="0" x2="60" y2="55" />
  </g>

  <g transform="translate(790, 510) scale(1.0)">
    <path class="line" d="M0,25 Q-7,12 0,0 Q7,-10 0,-18" />
    <path class="line" d="M16,25 Q9,12 16,0 Q23,-10 16,-18" />
  </g>

  <!-- Row 5 -->
  <g transform="translate(40, 690) scale(1.1) rotate(14)">
    <path class="line" d="M0,25 C0,0 60,0 60,25" />
    <path class="line" d="M0,25 C0,42 60,42 60,25" />
    <path class="line" d="M10,22 C14,16 18,16 22,22" />
    <path class="line" d="M22,20 C26,14 30,14 34,20" />
    <path class="line" d="M34,22 C38,16 42,16 46,22" />
    <path class="line" d="M26,-4 Q24,-12 28,-18" />
  </g>

  <g transform="translate(270, 700) scale(0.9) rotate(-25)">
    <ellipse class="line" cx="30" cy="20" rx="30" ry="18" />
    <path class="line" d="M5,20 L55,20" />
    <path class="line" d="M10,12 L50,12" />
    <path class="line" d="M10,28 L50,28" />
    <path class="line" d="M22,2 Q20,-5 24,-10" />
    <path class="line" d="M34,2 Q32,-5 36,-10" />
  </g>

  <g transform="translate(510, 680) scale(1.0) rotate(22)">
    <path class="line" d="M0,15 C0,50 70,50 70,15" />
    <path class="line" d="M70,15 L95,8" />
  </g>

  <g transform="translate(740, 700) scale(1.1) rotate(-8)">
    <path class="line" d="M0,25 C0,0 60,0 60,25" />
    <path class="line" d="M0,25 C0,42 60,42 60,25" />
    <path class="line" d="M8,22 C12,16 16,16 20,22" />
    <path class="line" d="M20,20 C24,14 28,14 32,20" />
    <path class="line" d="M32,22 C36,16 40,16 44,22" />
    <path class="line" d="M44,20 C48,14 52,14 56,20" />
    <path class="line" d="M24,-4 Q22,-12 26,-18" />
    <path class="line" d="M36,-4 Q34,-12 38,-18" />
  </g>

  <!-- Row 6 -->
  <g transform="translate(90, 840) scale(0.9) rotate(40)">
    <line class="line" x1="0" y1="0" x2="65" y2="50" />
    <line class="line" x1="8" y1="0" x2="60" y2="55" />
  </g>

  <g transform="translate(340, 850) scale(1.0) rotate(-10)">
    <path class="line" d="M0,25 C0,0 60,0 60,25" />
    <path class="line" d="M0,25 C0,42 60,42 60,25" />
    <path class="line" d="M10,22 C14,16 18,16 22,22" />
    <path class="line" d="M22,20 C26,14 30,14 34,20" />
  </g>

  <g transform="translate(580, 830) scale(1.0) rotate(15)">
    <path class="line" d="M0,15 C0,50 70,50 70,15" />
    <path class="line" d="M-8,15 L0,15" />
    <path class="line" d="M70,15 L95,8" />
    <line class="line" x1="20" y1="32" x2="50" y2="32" />
  </g>

  <g transform="translate(800, 850) scale(1.0)">
    <path class="line" d="M0,25 Q-7,12 0,0 Q7,-10 0,-18" />
    <path class="line" d="M16,25 Q9,12 16,0 Q23,-10 16,-18" />
    <path class="line" d="M32,25 Q25,12 32,0 Q39,-10 32,-18" />
  </g>

</svg>
